<svg id="Layer_1" data-name="Layer 1" xmlns="http://www.w3.org/2000/svg" viewBox="0 0 122.88 94.69" width="80" height="40">
  <defs>
    <style>.cls-1{fill-rule:evenodd;}</style>
  </defs>
  <title>self</title>
  <path class="cls-1" d="M61.31,86.12a34.36,34.36,0,0,1-22.4,8.57c-21.49,0-38.91-21-38.91-47S17.42.7,38.91.7A34.09,34.09,0,0,1,60.07,8.25a47.65,47.65,0,0,1,6.57-4A36.49,36.49,0,0,1,102.2,5,41.31,41.31,0,0,1,112,12.93a42.2,42.2,0,0,1,7,10.3,39.53,39.53,0,0,1,3.53,11.6,34.13,34.13,0,0,1-3.67,21.07c-3.22,6-8.5,11.59-16.24,16.13l-.21.1c0,.86,0,1.72.1,2.57s.15,1.89.26,2.83a47.15,47.15,0,0,0,1,5.34,42.87,42.87,0,0,0,1.55,5,1.84,1.84,0,1,1-3.45,1.3A48.48,48.48,0,0,1,99.1,78a52.47,52.47,0,0,1-.38-6.11A59.5,59.5,0,0,1,99,65.42v-.09a1.77,1.77,0,0,1,.67-1.19,1.8,1.8,0,0,1,1.3-.41h.09a1.85,1.85,0,0,1,1.2.66,1.8,1.8,0,0,1,.4,1.35c0,.48-.09,1-.13,1.48l0,.52a37,37,0,0,0,13.23-13.94,30.59,30.59,0,0,0,3.11-18.48,35.77,35.77,0,0,0-3.22-10.53,38.68,38.68,0,0,0-6.34-9.39,37.62,37.62,0,0,0-8.93-7.2,32.83,32.83,0,0,0-31.72-.84c-6.47,3.16-13,8.51-19.27,16.56l5.4,2.36.19.1a1.85,1.85,0,0,1,.81,1.12,1.81,1.81,0,0,1-.19,1.36l0,.06a11.18,11.18,0,0,0-.87,1.77,14.55,14.55,0,0,0-.62,2,18.3,18.3,0,0,0-.39,2.2,22.77,22.77,0,0,0-.18,2.36c0,.71,0,1.3,0,1.81s0,.93,0,1.32a9.67,9.67,0,0,1-.16,2.94,22.74,22.74,0,0,1-1.73,4.19c-1,2.09-2.35,5.34-3.53,7.19a5.06,5.06,0,0,0-.53,1v0a3.09,3.09,0,0,0-.17.88,2,2,0,0,0,0,.36,1,1,0,0,0,.09.28,1.4,1.4,0,0,0,.12.18l0,0,.13.1a1,1,0,0,0,.23.11,1.06,1.06,0,0,0,.31,0c1.26.13,2.66.15,3.95.23l.19,0,.25,0h.18l3.62.31a1.86,1.86,0,0,1,1.25.64,1.88,1.88,0,0,1,.43,1.35h0a1.85,1.85,0,0,1-2,1.68c-.51-.06-1.07-.07-1.58-.1,0,1.58,0,3.14.16,4.73a13.37,13.37,0,0,0,1.29.4,8.41,8.41,0,0,0,1.39.26,5.56,5.56,0,0,0,1.29,0,3.37,3.37,0,0,0,1-.29l.07,0a1.81,1.81,0,0,1,1.37-.06,1.79,1.79,0,0,1,1.05.94h0a1.86,1.86,0,0,1-.87,2.45,6.8,6.8,0,0,1-2,.62,9,9,0,0,1-2.27,0,10.77,10.77,0,0,1-1.31-.21l-.67-.16,0,.33c.06.47.14,1,.23,1.48s.2,1,.3,1.51a1.71,1.71,0,0,1,0,.71,2,2,0,0,1-.23.63,14.21,14.21,0,0,0-.83,2,7.54,7.54,0,0,0-.34,1.69,3.57,3.57,0,0,0,.13,1.27A2.27,2.27,0,0,0,55,81a3.45,3.45,0,0,0,1.08.72,7.55,7.55,0,0,0,1.64.5,15.81,15.81,0,0,0,3.32.21A31.84,31.84,0,0,0,65.15,82c1.43-.26,2.95-.6,4.48-1a43.09,43.09,0,0,0,4.12-1.35,30.38,30.38,0,0,0,3.36-1.54,18.22,18.22,0,0,0,2.6-1.69,6.52,6.52,0,0,0,1.71-2.23,21.92,21.92,0,0,0,1.09-2.71c.17-.46.33-.94.51-1.4a42.12,42.12,0,0,1,1.6-4,9.81,9.81,0,0,1,2.46-3.51,1.85,1.85,0,0,1,2.59.33A1.83,1.83,0,0,1,90,64.28a1.87,1.87,0,0,1-.7,1.23A7.14,7.14,0,0,0,87.8,68c-.52,1.14-1,2.42-1.33,3.36-.17.43-.32.9-.48,1.34a23.76,23.76,0,0,1-1.4,3.4A9.87,9.87,0,0,1,82.23,78a21.31,21.31,0,0,1-3,2.43,25.67,25.67,0,0,1-3.51,2.05,45.91,45.91,0,0,1-4.77,1.88c-1.7.55-3.46,1-5.15,1.36A36.09,36.09,0,0,1,61.31,86.12ZM21.26,29.43a1.74,1.74,0,0,0-1.27-.53h-.07a1.74,1.74,0,0,0-1.2.59C10.27,38.41,7.61,47.34,7.61,55.71c0,18.84,12.75,34.15,28.48,34.15,5.53,0,10.88-2.13,15.5-5.91-2.87-2.63-5.63-6.48-7.46-9.85-.65-1.13-1.2-2.11-1.7-2.93a25.32,25.32,0,0,0-4.21-5.28,25.07,25.07,0,0,0-5.86-4.32c-2.25-1.16-4.66-2.08-6.66-2.89-1-.41-1.92-.78-2.67-1.14A27.22,27.22,0,0,1,19,61.27a2.06,2.06,0,0,1-.47-.34.18.18,0,0,0-.14-.06c-.08,0-.16,0-.23.22a9.56,9.56,0,0,0-.62,2,18.33,18.33,0,0,0-.39,2.2,22.81,22.81,0,0,0-.18,2.36,36.44,36.44,0,0,0,.15,4.16,1.77,1.77,0,0,1-1.33,2,1.84,1.84,0,0,1-2-1.7,40.84,40.84,0,0,1-.17-5.1c0-.7,0-1.3,0-1.8s0-.94,0-1.32a26.74,26.74,0,0,1,.45-3.21,24.57,24.57,0,0,1,.83-2.84A12.22,12.22,0,0,1,17,57.76a1.85,1.85,0,0,1,1.25-.78h.09a1.84,1.84,0,0,1,1.41.25,24.41,24.41,0,0,0,2.23,1.06c.89.37,1.86.74,2.83,1.12a48.93,48.93,0,0,1,6.45,2.72,27.39,27.39,0,0,1,7.15,5.33,27.77,27.77,0,0,1,4.65,5.83,36.3,36.3,0,0,1,3.87,8.67c2.91-2.47,5.53-5.47,8.21-8.62l-.13,0a27.53,27.53,0,0,1-5.61-1.81,27.07,27.07,0,0,1-7.28-4.51,31.36,31.36,0,0,1-5.66-6.4,43.15,43.15,0,0,1-3.48-6.08,32.34,32.34,0,0,1-2.2-6.5,28.85,28.85,0,0,1-.58-8.33,36.64,36.64,0,0,1,1.15-7.14,30.44,30.44,0,0,1,2.87-6.86,1.8,1.8,0,0,0-.13-2Zm23.57-8.16a1.73,1.73,0,0,0-1.2.62,1.81,1.81,0,0,0,.18,2.59,48.87,48.87,0,0,1,4.7,4.46,24.9,24.9,0,0,0-.2-4.38l-.05-.2a1.8,1.8,0,0,0-1.61-1.31l-.11,0Z"/>
</svg>
